<?xml version="1.0" encoding="UTF-8" standalone="no"?>
<!-- Created with Inkscape (http://www.inkscape.org/) -->

<svg
   width="800"
   height="800"
   viewBox="0 0 211.66667 211.66667"
   version="1.1"
   id="svg1"
   inkscape:version="1.3.2 (091e20e, 2023-11-25, custom)"
   sodipodi:docname="DiagramaHasseNueveElementosCapaNoResaltada.svg"
   xmlns:inkscape="http://www.inkscape.org/namespaces/inkscape"
   xmlns:sodipodi="http://sodipodi.sourceforge.net/DTD/sodipodi-0.dtd"
   xmlns="http://www.w3.org/2000/svg"
   xmlns:svg="http://www.w3.org/2000/svg">
  <sodipodi:namedview
     id="namedview1"
     pagecolor="#ffffff"
     bordercolor="#000000"
     borderopacity="0.25"
     inkscape:showpageshadow="2"
     inkscape:pageopacity="0.0"
     inkscape:pagecheckerboard="0"
     inkscape:deskcolor="#d1d1d1"
     inkscape:document-units="mm"
     showgrid="true"
     inkscape:zoom="0.48984232"
     inkscape:cx="-201.08512"
     inkscape:cy="-68.389354"
     inkscape:window-width="1920"
     inkscape:window-height="1051"
     inkscape:window-x="-9"
     inkscape:window-y="-9"
     inkscape:window-maximized="1"
     inkscape:current-layer="layer3">
    <inkscape:grid
       type="axonomgrid"
       id="grid2"
       units="px"
       originx="105.83334"
       originy="105.83334"
       spacingx="0"
       spacingy="1.3229167"
       empcolor="#0099e5"
       empopacity="0.30196078"
       color="#0099e5"
       opacity="0.14901961"
       empspacing="5"
       dotted="false"
       gridanglex="30"
       gridanglez="30"
       visible="true"
       snapvisiblegridlinesonly="false"
       enabled="true" />
  </sodipodi:namedview>
  <defs
     id="defs1" />
  <g
     inkscape:groupmode="layer"
     id="layer3"
     inkscape:label="CapaAjuste">
    <g
       id="g2">
      <rect
         style="fill:#ffffff;fill-opacity:1;stroke:#ff8484;stroke-width:6.2422e-06;stroke-opacity:0"
         id="rect9"
         width="0.0049937591"
         height="0.0049937577"
         x="3.1211e-06"
         y="3.1211e-06"
         ry="0" />
      <rect
         style="fill:#ffffff;fill-opacity:1;stroke:#ff8484;stroke-width:6.2422e-06;stroke-opacity:0"
         id="rect9-9"
         width="0.0049937591"
         height="0.0049937577"
         x="211.66167"
         y="211.66167"
         ry="0" />
    </g>
  </g>
  <g
     id="use10"
     transform="matrix(2.2030981,0,0,2.2030981,99.500544,187.7743)"
     style="fill:#000000;fill-opacity:1">
    <path
       d="M 3.71875,-3.765625 C 3.53125,-4.140625 3.25,-4.40625 2.796875,-4.40625 c -1.15625,0 -2.390625,1.46875 -2.390625,2.921875 0,0.9375 0.546875,1.59375 1.3125,1.59375 0.203125,0 0.703125,-0.046875 1.296875,-0.75 0.078125,0.421875 0.4375,0.75 0.90625,0.75 0.359375,0 0.578125,-0.234375 0.75,-0.546875 0.15625,-0.359375 0.296875,-0.96875 0.296875,-0.984375 0,-0.109375 -0.09375,-0.109375 -0.125,-0.109375 -0.09375,0 -0.109375,0.046875 -0.140625,0.1875 -0.171875,0.640625 -0.34375,1.234375 -0.75,1.234375 -0.28125,0 -0.296875,-0.265625 -0.296875,-0.453125 0,-0.21875 0.015625,-0.3125 0.125,-0.75 C 3.890625,-1.71875 3.90625,-1.828125 4,-2.203125 L 4.359375,-3.59375 c 0.0625,-0.28125 0.0625,-0.296875 0.0625,-0.34375 0,-0.171875 -0.109375,-0.265625 -0.28125,-0.265625 -0.25,0 -0.390625,0.21875 -0.421875,0.4375 z M 3.078125,-1.1875 C 3.015625,-1 3.015625,-0.984375 2.875,-0.8125 2.4375,-0.265625 2.03125,-0.109375 1.75,-0.109375 c -0.5,0 -0.640625,-0.546875 -0.640625,-0.9375 0,-0.5 0.3125,-1.71875 0.546875,-2.1875 0.3125,-0.578125 0.75,-0.953125 1.15625,-0.953125 0.640625,0 0.78125,0.8125 0.78125,0.875 0,0.0625 -0.015625,0.125 -0.03125,0.171875 z m 0,0"
       id="path19" />
  </g>
  <g
     id="use11"
     transform="matrix(2.2030981,0,0,2.2030981,64.901794,168.18936)"
     style="fill:#000000;fill-opacity:1">
    <path
       d="m -0.0269208,-8.7340368 c 0,0 0,-0.109375 -0.125,-0.109375 -0.21874996,0 -0.9531248,0.078125 -1.2187498,0.109375 -0.078125,0 -0.1875001,0.015625 -0.1875001,0.1875 0,0.125 0.09375,0.125 0.2500001,0.125 0.46874992,0 0.48437492,0.0625 0.48437492,0.171875 0,0.0625 -0.078125,0.40625 -0.12499996,0.609375 l -0.82812506,3.25 c -0.109375,0.5 -0.15625,0.671875 -0.15625,1.015625 0,0.9375001 0.5312501,1.5625002 1.26562498,1.5625002 1.17187484,0 2.40624972,-1.4843752 2.40624972,-2.9218752 0,-0.90625 -0.53125,-1.59375 -1.32812488,-1.59375 -0.45312492,0 -0.87499984,0.296875 -1.1718748,0.59375 z m -0.92187484,3.765625 c 0.046875,-0.21875 0.046875,-0.234375 0.14062496,-0.34375 0.48437492,-0.640625 0.93749984,-0.796875 1.2031248,-0.796875 0.35937496,0 0.62499988,0.296875 0.62499988,0.9375 0,0.59375 -0.32812492,1.734375 -0.51562488,2.109375 -0.32812496,0.6718751 -0.78124988,1.0312502 -1.17187484,1.0312502 -0.34374988,0 -0.67187488,-0.2656251 -0.67187488,-1.0000002 0,-0.203125 0,-0.390625 0.15625,-1.015625 z m 0,0"
       id="path20" />
  </g>
  <g
     id="use12"
     transform="matrix(2.2030981,0,0,2.2030981,141.49938,161.33444)"
     style="fill:#000000;fill-opacity:1">
    <path
       d="m 3.953125,-3.78125 c -0.171875,0 -0.296875,0 -0.4375,0.125 -0.171875,0.15625 -0.1875,0.328125 -0.1875,0.390625 0,0.25 0.1875,0.359375 0.375,0.359375 0.28125,0 0.546875,-0.25 0.546875,-0.640625 0,-0.484375 -0.46875,-0.859375 -1.171875,-0.859375 -1.34375,0 -2.671875,1.421875 -2.671875,2.828125 0,0.90625 0.578125,1.6875 1.625,1.6875 1.421875,0 2.25,-1.0625 2.25,-1.171875 0,-0.0625 -0.046875,-0.140625 -0.109375,-0.140625 -0.0625,0 -0.078125,0.03125 -0.140625,0.109375 -0.78125,0.984375 -1.875,0.984375 -1.984375,0.984375 -0.625,0 -0.90625,-0.484375 -0.90625,-1.09375 0,-0.40625 0.203125,-1.375 0.546875,-1.984375 0.3125,-0.578125 0.859375,-1 1.40625,-1 0.328125,0 0.71875,0.125 0.859375,0.40625 z m 0,0"
       id="path21" />
  </g>
  <g
     id="use13"
     transform="matrix(2.2030981,0,0,2.2030981,59.036381,115.60408)"
     style="fill:#000000;fill-opacity:1">
    <path
       d="m 5.140625,-6.8125 c 0,0 0,-0.109375 -0.125,-0.109375 -0.15625,0 -1.09375,0.09375 -1.265625,0.109375 -0.078125,0.015625 -0.140625,0.0625 -0.140625,0.1875 0,0.125 0.09375,0.125 0.234375,0.125 0.484375,0 0.5,0.0625 0.5,0.171875 L 4.3125,-6.125 3.71875,-3.765625 C 3.53125,-4.140625 3.25,-4.40625 2.796875,-4.40625 c -1.15625,0 -2.390625,1.46875 -2.390625,2.921875 0,0.9375 0.546875,1.59375 1.3125,1.59375 0.203125,0 0.703125,-0.046875 1.296875,-0.75 0.078125,0.421875 0.4375,0.75 0.90625,0.75 0.359375,0 0.578125,-0.234375 0.75,-0.546875 0.15625,-0.359375 0.296875,-0.96875 0.296875,-0.984375 0,-0.109375 -0.09375,-0.109375 -0.125,-0.109375 -0.09375,0 -0.109375,0.046875 -0.140625,0.1875 -0.171875,0.640625 -0.34375,1.234375 -0.75,1.234375 -0.28125,0 -0.296875,-0.265625 -0.296875,-0.453125 0,-0.25 0.015625,-0.3125 0.046875,-0.484375 z m -2.0625,5.625 C 3.015625,-1 3.015625,-0.984375 2.875,-0.8125 2.4375,-0.265625 2.03125,-0.109375 1.75,-0.109375 c -0.5,0 -0.640625,-0.546875 -0.640625,-0.9375 0,-0.5 0.3125,-1.71875 0.546875,-2.1875 0.3125,-0.578125 0.75,-0.953125 1.15625,-0.953125 0.640625,0 0.78125,0.8125 0.78125,0.875 0,0.0625 -0.015625,0.125 -0.03125,0.171875 z m 0,0"
       id="path22" />
  </g>
  <g
     id="use14"
     transform="matrix(2.2030981,0,0,2.2030981,157.72924,126.67075)"
     style="fill:#000000;fill-opacity:1">
    <path
       d="m -6.0669639,-7.8212933 c 0.296875,0 1.03125,-0.03125 1.53125,-0.234375 0.703125,-0.296875 0.75,-0.890625 0.75,-1.03125 0,-0.4375 -0.375,-0.8437496 -1.0625,-0.8437496 -1.109375,0 -2.6250001,0.9687496 -2.6250001,2.7187496 0,1.0156251 0.5937501,1.7968752 1.5781251,1.7968752 1.421875,0 2.25,-1.0625002 2.25,-1.1718752 0,-0.0625 -0.046875,-0.140625 -0.109375,-0.140625 -0.0625,0 -0.078125,0.03125 -0.140625,0.109375 -0.78125,0.9843752 -1.875,0.9843752 -1.984375,0.9843752 -0.78125,0 -0.875,-0.8437502 -0.875,-1.1562502 0,-0.125 0.015625,-0.421875 0.15625,-1.03125 z m -0.46875,-0.21875 c 0.390625,-1.515625 1.421875,-1.671875 1.6875,-1.671875 0.453125,0 0.734375,0.296875 0.734375,0.625 0,1.046875 -1.59375,1.046875 -2.015625,1.046875 z m 0,0"
       id="path23" />
  </g>
  <g
     id="use15"
     transform="matrix(2.2030981,0,0,2.2030981,137.49307,73.836914)"
     style="fill:#000000;fill-opacity:1">
    <path
       d="m 3.65625,-3.984375 h 0.859375 c 0.203125,0 0.296875,0 0.296875,-0.203125 0,-0.109375 -0.09375,-0.109375 -0.265625,-0.109375 H 3.71875 L 3.921875,-5.4375 c 0.046875,-0.203125 0.1875,-0.90625 0.25,-1.03125 0.078125,-0.1875 0.25,-0.34375 0.46875,-0.34375 0.03125,0 0.296875,0 0.484375,0.1875 -0.4375,0.03125 -0.546875,0.390625 -0.546875,0.53125 0,0.234375 0.1875,0.359375 0.375,0.359375 C 5.21875,-5.734375 5.5,-5.96875 5.5,-6.34375 c 0,-0.453125 -0.453125,-0.6875 -0.859375,-0.6875 -0.34375,0 -0.96875,0.1875 -1.265625,1.171875 -0.0625,0.203125 -0.09375,0.3125 -0.328125,1.5625 h -0.6875 c -0.203125,0 -0.3125,0 -0.3125,0.1875 0,0.125 0.09375,0.125 0.28125,0.125 h 0.65625 L 2.25,-0.046875 c -0.1875,0.96875 -0.359375,1.875 -0.875,1.875 -0.046875,0 -0.28125,0 -0.484375,-0.1875 C 1.359375,1.609375 1.453125,1.25 1.453125,1.109375 1.453125,0.875 1.265625,0.75 1.078125,0.75 0.8125,0.75 0.53125,0.984375 0.53125,1.359375 c 0,0.4375 0.4375,0.6875 0.84375,0.6875 0.546875,0 0.953125,-0.59375 1.125,-0.96875 0.328125,-0.625 0.546875,-1.828125 0.5625,-1.90625 z m 0,0"
       id="path24" />
  </g>
  <g
     fill="#000000"
     fill-opacity="1"
     id="g16"
     transform="matrix(2.2030981,0,0,2.2030981,-11.00321,51.655762)">
    <g
       id="use16"
       transform="translate(31.624762,8.9110003)">
      <path
         d="M 4.6875,-3.765625 C 4.703125,-3.8125 4.71875,-3.875 4.71875,-3.9375 c 0,-0.171875 -0.109375,-0.265625 -0.28125,-0.265625 -0.09375,0 -0.375,0.0625 -0.40625,0.421875 -0.1875,-0.359375 -0.53125,-0.625 -0.9375,-0.625 -1.125,0 -2.359375,1.390625 -2.359375,2.828125 0,0.984375 0.59375,1.578125 1.3125,1.578125 0.59375,0 1.0625,-0.46875 1.15625,-0.578125 L 3.21875,-0.5625 C 3.015625,0.3125 2.890625,0.734375 2.890625,0.75 2.84375,0.84375 2.515625,1.828125 1.453125,1.828125 1.265625,1.828125 0.9375,1.8125 0.65625,1.71875 0.953125,1.640625 1.0625,1.375 1.0625,1.203125 c 0,-0.15625 -0.109375,-0.34375 -0.375,-0.34375 -0.21875,0 -0.53125,0.171875 -0.53125,0.578125 0,0.40625 0.359375,0.609375 1.3125,0.609375 1.25,0 1.96875,-0.78125 2.125,-1.375 z M 3.40625,-1.28125 C 3.34375,-1.015625 3.109375,-0.765625 2.890625,-0.578125 2.6875,-0.40625 2.375,-0.21875 2.078125,-0.21875 c -0.5,0 -0.640625,-0.515625 -0.640625,-0.921875 0,-0.46875 0.28125,-1.65625 0.5625,-2.15625 C 2.265625,-3.78125 2.6875,-4.1875 3.109375,-4.1875 c 0.65625,0 0.796875,0.8125 0.796875,0.859375 0,0.046875 -0.015625,0.109375 -0.03125,0.140625 z m 0,0"
         id="path25" />
    </g>
  </g>
  <g
     id="use17"
     transform="matrix(2.2030981,0,0,2.2030981,94.502545,42.385771)"
     style="fill:#000000;fill-opacity:1">
    <path
       d="m 5.3052798,-8.9955525 c 0,0 0,-0.109375 -0.125,-0.109375 -0.234375,0 -0.953125,0.078125 -1.21875,0.109375 -0.078125,0 -0.1875,0.015625 -0.1875,0.1875 0,0.125 0.09375,0.125 0.234375,0.125 0.484375,0 0.5,0.0625 0.5,0.171875 l -0.03125,0.203125 -1.4375,5.734375 c -0.046875,0.140625 -0.046875,0.15625 -0.046875,0.21875 0,0.234375 0.203125,0.28125 0.296875,0.28125 0.15625,0 0.3125,-0.125 0.359375,-0.265625 l 0.1875,-0.75 0.21875,-0.890625 c 0.0625,-0.234375 0.125,-0.453125 0.171875,-0.671875 0.015625,-0.0625 0.109375,-0.390625 0.109375,-0.453125 0.03125,-0.09375 0.34375,-0.640625 0.6875,-0.921875 0.21875,-0.15625 0.515625,-0.34375 0.953125,-0.34375 0.421875,0 0.53125,0.34375 0.53125,0.703125 0,0.53125 -0.375,1.625 -0.609375,2.234375 -0.078125,0.21875 -0.140625,0.34375 -0.140625,0.546875 0,0.46875 0.359375,0.8125 0.828125,0.8125 0.9375,0 1.296875,-1.453125 1.296875,-1.53125 0,-0.109375 -0.078125,-0.109375 -0.109375,-0.109375 -0.109375,0 -0.109375,0.03125 -0.15625,0.1875 -0.140625,0.53125 -0.46875,1.234375 -1.015625,1.234375 -0.171875,0 -0.234375,-0.09375 -0.234375,-0.328125 0,-0.25 0.078125,-0.484375 0.171875,-0.703125 0.15625,-0.4375 0.609375,-1.625 0.609375,-2.203125 0,-0.640625 -0.390625,-1.0625 -1.140625,-1.0625 -0.625,0 -1.109375,0.3125 -1.484375,0.765625 z m 0,0"
       id="path26" />
  </g>
  <g
     id="use19"
     transform="matrix(2.2030981,0,0,2.2030981,151.68024,44.090362)"
     style="fill:#000000;fill-opacity:1">
    <path
       d="m -0.64326069,-10.301727 c 0,-0.187499 -0.140625,-0.359374 -0.37500001,-0.359374 -0.234375,0 -0.53125,0.234374 -0.53125,0.531249 0,0.2031245 0.140625,0.3593745 0.375,0.3593745 0.26562501,0 0.53125001,-0.2656245 0.53125001,-0.5312495 z m -2.00000001,6.7343747 c -0.1875,0.7500001 -0.671875,1.3281251 -1.21875,1.3281251 -0.0625,0 -0.21875,0 -0.390625,-0.09375 0.296875,-0.0625 0.4375,-0.328125 0.4375,-0.53125 0,-0.15625 -0.109375,-0.3437501 -0.375,-0.3437501 -0.25,0 -0.53125,0.2031251 -0.53125,0.5625001 0,0.40625 0.390625,0.625 0.875,0.625 0.703125,0 1.625,-0.53125 1.875,-1.5156251 l 0.90625,-3.6562503 c 0.0625,-0.1875 0.0625,-0.328125 0.0625,-0.359375 0,-0.578125 -0.421875,-0.921875 -0.921875,-0.921875 -1.015625,0 -1.578125,1.453125 -1.578125,1.53125 0,0.109375 0.09375,0.109375 0.109375,0.109375 0.09375,0 0.109375,-0.015625 0.1875,-0.203125 0.25,-0.609375 0.703125,-1.21875 1.25,-1.21875 0.140625,0 0.3125,0.046875 0.3125,0.453125 0,0.234375 -0.015625,0.34375 -0.0625,0.515625 z m 0,0"
       id="path28" />
  </g>
</svg>
