<?xml version="1.0" encoding="UTF-8" standalone="no"?>
<!-- Created with Inkscape (http://www.inkscape.org/) -->

<svg
   width="800"
   height="800"
   viewBox="0 0 211.66667 211.66667"
   version="1.1"
   id="svg1"
   inkscape:version="1.3 (0e150ed6c4, 2023-07-21)"
   sodipodi:docname="DigrafoVerticesDiagonal.svg"
   xmlns:inkscape="http://www.inkscape.org/namespaces/inkscape"
   xmlns:sodipodi="http://sodipodi.sourceforge.net/DTD/sodipodi-0.dtd"
   xmlns="http://www.w3.org/2000/svg"
   xmlns:svg="http://www.w3.org/2000/svg">
  <sodipodi:namedview
     id="namedview1"
     pagecolor="#ffffff"
     bordercolor="#000000"
     borderopacity="0.25"
     inkscape:showpageshadow="2"
     inkscape:pageopacity="0.0"
     inkscape:pagecheckerboard="0"
     inkscape:deskcolor="#d1d1d1"
     inkscape:document-units="mm"
     showgrid="true"
     inkscape:zoom="0.69274165"
     inkscape:cx="21.653094"
     inkscape:cy="419.34825"
     inkscape:window-width="1920"
     inkscape:window-height="1051"
     inkscape:window-x="-9"
     inkscape:window-y="-9"
     inkscape:window-maximized="1"
     inkscape:current-layer="g3">
    <inkscape:grid
       id="grid1"
       units="px"
       originx="105.83334"
       originy="105.83334"
       spacingx="1.3229166"
       spacingy="1.3229166"
       empcolor="#0099e5"
       empopacity="0.30196078"
       color="#0099e5"
       opacity="0.14901961"
       empspacing="10"
       dotted="false"
       gridanglex="30"
       gridanglez="30"
       visible="true"
       snapvisiblegridlinesonly="true"
       enabled="true" />
  </sodipodi:namedview>
  <defs
     id="defs1">
    <marker
       style="overflow:visible"
       id="Triangle-1-4-8"
       refX="0"
       refY="0"
       orient="auto-start-reverse"
       inkscape:stockid="Triangle arrow"
       markerWidth="0.7"
       markerHeight="0.7"
       viewBox="0 0 1 1"
       inkscape:isstock="true"
       inkscape:collect="always"
       preserveAspectRatio="xMidYMid">
      <path
         transform="scale(0.5)"
         style="fill:context-stroke;fill-rule:evenodd;stroke:context-stroke;stroke-width:1pt"
         d="M 5.77,0 -2.88,5 V -5 Z"
         id="path135-2-8-3" />
    </marker>
    <marker
       style="overflow:visible"
       id="Triangle-1-4-8-6"
       refX="0"
       refY="0"
       orient="auto-start-reverse"
       inkscape:stockid="Triangle arrow"
       markerWidth="0.75"
       markerHeight="0.75"
       viewBox="0 0 1 1"
       inkscape:isstock="true"
       inkscape:collect="always"
       preserveAspectRatio="xMidYMid">
      <path
         transform="scale(0.5)"
         style="fill:context-stroke;fill-rule:evenodd;stroke:context-stroke;stroke-width:1pt"
         d="M 5.77,0 -2.88,5 V -5 Z"
         id="path135-2-8-3-7" />
    </marker>
    <marker
       style="overflow:visible"
       id="Triangle-1-4-8-6-3"
       refX="0"
       refY="0"
       orient="auto-start-reverse"
       inkscape:stockid="Triangle arrow"
       markerWidth="0.75"
       markerHeight="0.75"
       viewBox="0 0 1 1"
       inkscape:isstock="true"
       inkscape:collect="always"
       preserveAspectRatio="xMidYMid">
      <path
         transform="scale(0.5)"
         style="fill:context-stroke;fill-rule:evenodd;stroke:context-stroke;stroke-width:1pt"
         d="M 5.77,0 -2.88,5 V -5 Z"
         id="path135-2-8-3-7-6" />
    </marker>
    <marker
       style="overflow:visible"
       id="Triangle-1-4-8-6-3-6"
       refX="0"
       refY="0"
       orient="auto-start-reverse"
       inkscape:stockid="Triangle arrow"
       markerWidth="0.75"
       markerHeight="0.75"
       viewBox="0 0 1 1"
       inkscape:isstock="true"
       inkscape:collect="always"
       preserveAspectRatio="xMidYMid">
      <path
         transform="scale(0.5)"
         style="fill:context-stroke;fill-rule:evenodd;stroke:context-stroke;stroke-width:1pt"
         d="M 5.77,0 -2.88,5 V -5 Z"
         id="path135-2-8-3-7-6-1" />
    </marker>
    <marker
       style="overflow:visible"
       id="marker53-4"
       refX="0"
       refY="0"
       orient="auto-start-reverse"
       inkscape:stockid="Triangle arrow"
       markerWidth="0.75"
       markerHeight="0.75"
       viewBox="0 0 1 1"
       inkscape:isstock="true"
       inkscape:collect="always"
       preserveAspectRatio="xMidYMid">
      <path
         transform="scale(0.5)"
         style="fill:context-stroke;fill-rule:evenodd;stroke:context-stroke;stroke-width:1pt"
         d="M 5.77,0 -2.88,5 V -5 Z"
         id="path53-5" />
    </marker>
    <marker
       style="overflow:visible"
       id="marker53-4-1"
       refX="0"
       refY="0"
       orient="auto-start-reverse"
       inkscape:stockid="Triangle arrow"
       markerWidth="0.75"
       markerHeight="0.75"
       viewBox="0 0 1 1"
       inkscape:isstock="true"
       inkscape:collect="always"
       preserveAspectRatio="xMidYMid">
      <path
         transform="scale(0.5)"
         style="fill:context-stroke;fill-rule:evenodd;stroke:context-stroke;stroke-width:1pt"
         d="M 5.77,0 -2.88,5 V -5 Z"
         id="path53-5-0" />
    </marker>
  </defs>
  <g
     inkscape:label="CapaResaltada"
     inkscape:groupmode="layer"
     id="layer1">
    <g
       inkscape:label=""
       transform="matrix(13.584897,0,0,13.584897,55.953697,50.3201)"
       id="g35">
      <g
         fill="#000000"
         fill-opacity="1"
         id="g2"
         transform="matrix(0.352778,0,0,0.352778,-0.901524,-0.444412)" />
    </g>
    <g
       id="g3"
       style="fill:none;fill-opacity:1;stroke:#ff8484;stroke-opacity:1">
      <g
         id="g18">
        <path
           style="fill:none;fill-opacity:1;stroke:#ff8484;stroke-width:2.64583;stroke-linecap:round;stroke-dasharray:none;stroke-opacity:1;marker-start:url(#Triangle-1-4-8)"
           id="path34-3-1-2"
           sodipodi:type="arc"
           sodipodi:cx="20.577969"
           sodipodi:cy="-0.0012458188"
           sodipodi:rx="13.229165"
           sodipodi:ry="13.229165"
           sodipodi:start="0.78539816"
           sodipodi:end="5.7595865"
           sodipodi:arc-type="arc"
           d="M 29.932401,9.3531865 A 13.229165,13.229165 0 0 1 14.726859,11.863632 13.229165,13.229165 0 0 1 7.4619808,-1.7279981 13.229165,13.229165 0 0 1 17.997086,-12.976216 13.229165,13.229165 0 0 1 32.034761,-6.6158287"
           sodipodi:open="true"
           transform="rotate(45)" />
        <path
           style="fill:none;fill-opacity:1;stroke:#ff8484;stroke-width:2.64583;stroke-linecap:round;stroke-dasharray:none;stroke-opacity:1;marker-start:url(#Triangle-1-4-8-6)"
           id="path34-3-1-2-8"
           sodipodi:type="arc"
           sodipodi:cx="-129.09296"
           sodipodi:cy="149.66971"
           sodipodi:rx="13.229165"
           sodipodi:ry="13.229165"
           sodipodi:start="0.78539816"
           sodipodi:end="5.7595865"
           sodipodi:arc-type="arc"
           d="m -119.73852,159.02414 a 13.229165,13.229165 0 0 1 -15.20555,2.51045 13.229165,13.229165 0 0 1 -7.26487,-13.59163 13.229165,13.229165 0 0 1 10.5351,-11.24822 13.229165,13.229165 0 0 1 14.03768,6.36039"
           sodipodi:open="true"
           transform="rotate(-45)" />
        <path
           style="fill:none;fill-opacity:1;stroke:#ff8484;stroke-width:2.64583;stroke-linecap:round;stroke-dasharray:none;stroke-opacity:1;marker-start:url(#Triangle-1-4-8-6-3)"
           id="path34-3-1-2-8-4"
           sodipodi:type="arc"
           sodipodi:cx="-278.76392"
           sodipodi:cy="-0.0012458188"
           sodipodi:rx="13.229165"
           sodipodi:ry="13.229165"
           sodipodi:start="0.78539816"
           sodipodi:end="5.7595865"
           sodipodi:arc-type="arc"
           d="m -269.40948,9.3531865 a 13.229165,13.229165 0 0 1 -15.20555,2.5104455 13.229165,13.229165 0 0 1 -7.26487,-13.5916301 13.229165,13.229165 0 0 1 10.5351,-11.2482179 13.229165,13.229165 0 0 1 14.03768,6.3603873"
           sodipodi:open="true"
           transform="rotate(-135)" />
        <path
           style="fill:none;fill-opacity:1;stroke:#ff8484;stroke-width:2.64583;stroke-linecap:round;stroke-dasharray:none;stroke-opacity:1;marker-start:url(#Triangle-1-4-8-6-3-6)"
           id="path34-3-1-2-8-4-7"
           sodipodi:type="arc"
           sodipodi:cx="-129.09296"
           sodipodi:cy="-149.6722"
           sodipodi:rx="13.229165"
           sodipodi:ry="13.229165"
           sodipodi:start="0.78539816"
           sodipodi:end="5.7595865"
           sodipodi:arc-type="arc"
           d="m -119.73852,-140.31776 a 13.229165,13.229165 0 0 1 -15.20555,2.51044 13.229165,13.229165 0 0 1 -7.26487,-13.59163 13.229165,13.229165 0 0 1 10.5351,-11.24822 13.229165,13.229165 0 0 1 14.03768,6.36039"
           sodipodi:open="true"
           transform="rotate(135)" />
        <g
           id="g16"
           transform="translate(4.5572108,6.3610812)">
          <path
             style="fill:none;fill-opacity:1;stroke:#ff8484;stroke-width:2.64583;stroke-linecap:round;stroke-dasharray:none;stroke-opacity:1;marker-end:url(#marker53-4)"
             d="M 157.93408,53.732591 115.13873,96.527938 57.392412,154.27425"
             id="path49-9"
             sodipodi:nodetypes="ccc" />
          <path
             style="fill:none;fill-opacity:1;stroke:#ff8484;stroke-width:2.64583;stroke-linecap:round;stroke-dasharray:none;stroke-opacity:1;marker-end:url(#marker53-4-1)"
             d="M 44.618165,145.21187 87.413505,102.41653 145.15984,44.670252"
             id="path49-9-0"
             sodipodi:nodetypes="ccc" />
        </g>
      </g>
    </g>
  </g>
  <g
     inkscape:groupmode="layer"
     id="layer2"
     inkscape:label="CapaNoResaltada">
    <g
       id="g17">
      <g
         inkscape:label=""
         transform="matrix(9.5049424,0,0,9.5049424,25.423585,32.116759)"
         id="g6">
        <g
           fill="#000000"
           fill-opacity="1"
           id="g5"
           transform="matrix(0.352778,0,0,0.352778,-0.846402,-0.661723)">
          <g
             id="g4"
             transform="translate(1.993,6.2820001)">
            <path
               d="M 3.71875,-3.765625 C 3.53125,-4.140625 3.25,-4.40625 2.796875,-4.40625 c -1.15625,0 -2.390625,1.46875 -2.390625,2.921875 0,0.9375 0.546875,1.59375 1.3125,1.59375 0.203125,0 0.703125,-0.046875 1.296875,-0.75 0.078125,0.421875 0.4375,0.75 0.90625,0.75 0.359375,0 0.578125,-0.234375 0.75,-0.546875 0.15625,-0.359375 0.296875,-0.96875 0.296875,-0.984375 0,-0.109375 -0.09375,-0.109375 -0.125,-0.109375 -0.09375,0 -0.109375,0.046875 -0.140625,0.1875 -0.171875,0.640625 -0.34375,1.234375 -0.75,1.234375 -0.28125,0 -0.296875,-0.265625 -0.296875,-0.453125 0,-0.21875 0.015625,-0.3125 0.125,-0.75 C 3.890625,-1.71875 3.90625,-1.828125 4,-2.203125 L 4.359375,-3.59375 c 0.0625,-0.28125 0.0625,-0.296875 0.0625,-0.34375 0,-0.171875 -0.109375,-0.265625 -0.28125,-0.265625 -0.25,0 -0.390625,0.21875 -0.421875,0.4375 z M 3.078125,-1.1875 C 3.015625,-1 3.015625,-0.984375 2.875,-0.8125 2.4375,-0.265625 2.03125,-0.109375 1.75,-0.109375 c -0.5,0 -0.640625,-0.546875 -0.640625,-0.9375 0,-0.5 0.3125,-1.71875 0.546875,-2.1875 0.3125,-0.578125 0.75,-0.953125 1.15625,-0.953125 0.640625,0 0.78125,0.8125 0.78125,0.875 0,0.0625 -0.015625,0.125 -0.03125,0.171875 z m 0,0"
               id="path1" />
          </g>
        </g>
      </g>
      <g
         inkscape:label=""
         transform="matrix(9.5049424,0,0,9.5049424,170.99682,23.681527)"
         id="g9">
        <g
           fill="#000000"
           fill-opacity="1"
           id="g8"
           transform="matrix(0.352778,0,0,0.352778,-0.868451,-0.701719)">
          <g
             id="g7"
             transform="translate(1.993,8.9110003)">
            <path
               d="m 2.375,-6.8125 c 0,0 0,-0.109375 -0.125,-0.109375 -0.21875,0 -0.953125,0.078125 -1.21875,0.109375 -0.078125,0 -0.1875,0.015625 -0.1875,0.1875 0,0.125 0.09375,0.125 0.25,0.125 0.46875,0 0.484375,0.0625 0.484375,0.171875 0,0.0625 -0.078125,0.40625 -0.125,0.609375 l -0.828125,3.25 c -0.109375,0.5 -0.15625,0.671875 -0.15625,1.015625 0,0.9375 0.53125,1.5625 1.265625,1.5625 1.171875,0 2.40625,-1.484375 2.40625,-2.921875 0,-0.90625 -0.53125,-1.59375 -1.328125,-1.59375 -0.453125,0 -0.875,0.296875 -1.171875,0.59375 z M 1.453125,-3.046875 C 1.5,-3.265625 1.5,-3.28125 1.59375,-3.390625 2.078125,-4.03125 2.53125,-4.1875 2.796875,-4.1875 c 0.359375,0 0.625,0.296875 0.625,0.9375 0,0.59375 -0.328125,1.734375 -0.515625,2.109375 -0.328125,0.671875 -0.78125,1.03125 -1.171875,1.03125 -0.34375,0 -0.671875,-0.265625 -0.671875,-1 0,-0.203125 0,-0.390625 0.15625,-1.015625 z m 0,0"
               id="path6" />
          </g>
        </g>
      </g>
      <g
         inkscape:label=""
         transform="matrix(9.5049424,0,0,9.5049424,26.576225,164.40842)"
         id="g12">
        <g
           fill="#000000"
           fill-opacity="1"
           id="g11"
           transform="matrix(0.352778,0,0,0.352778,-0.846402,-0.661723)">
          <g
             id="g10"
             transform="translate(1.993,6.2820001)">
            <path
               d="m 3.953125,-3.78125 c -0.171875,0 -0.296875,0 -0.4375,0.125 -0.171875,0.15625 -0.1875,0.328125 -0.1875,0.390625 0,0.25 0.1875,0.359375 0.375,0.359375 0.28125,0 0.546875,-0.25 0.546875,-0.640625 0,-0.484375 -0.46875,-0.859375 -1.171875,-0.859375 -1.34375,0 -2.671875,1.421875 -2.671875,2.828125 0,0.90625 0.578125,1.6875 1.625,1.6875 1.421875,0 2.25,-1.0625 2.25,-1.171875 0,-0.0625 -0.046875,-0.140625 -0.109375,-0.140625 -0.0625,0 -0.078125,0.03125 -0.140625,0.109375 -0.78125,0.984375 -1.875,0.984375 -1.984375,0.984375 -0.625,0 -0.90625,-0.484375 -0.90625,-1.09375 0,-0.40625 0.203125,-1.375 0.546875,-1.984375 0.3125,-0.578125 0.859375,-1 1.40625,-1 0.328125,0 0.71875,0.125 0.859375,0.40625 z m 0,0"
               id="path9" />
          </g>
        </g>
      </g>
      <g
         inkscape:label=""
         transform="matrix(9.5049424,0,0,9.5049424,170.65626,155.97319)"
         id="g15">
        <g
           fill="#000000"
           fill-opacity="1"
           id="g14"
           transform="matrix(0.352778,0,0,0.352778,-0.846402,-0.701719)">
          <g
             id="g13"
             transform="translate(1.993,8.9110003)">
            <path
               d="m 5.140625,-6.8125 c 0,0 0,-0.109375 -0.125,-0.109375 -0.15625,0 -1.09375,0.09375 -1.265625,0.109375 -0.078125,0.015625 -0.140625,0.0625 -0.140625,0.1875 0,0.125 0.09375,0.125 0.234375,0.125 0.484375,0 0.5,0.0625 0.5,0.171875 L 4.3125,-6.125 3.71875,-3.765625 C 3.53125,-4.140625 3.25,-4.40625 2.796875,-4.40625 c -1.15625,0 -2.390625,1.46875 -2.390625,2.921875 0,0.9375 0.546875,1.59375 1.3125,1.59375 0.203125,0 0.703125,-0.046875 1.296875,-0.75 0.078125,0.421875 0.4375,0.75 0.90625,0.75 0.359375,0 0.578125,-0.234375 0.75,-0.546875 0.15625,-0.359375 0.296875,-0.96875 0.296875,-0.984375 0,-0.109375 -0.09375,-0.109375 -0.125,-0.109375 -0.09375,0 -0.109375,0.046875 -0.140625,0.1875 -0.171875,0.640625 -0.34375,1.234375 -0.75,1.234375 -0.28125,0 -0.296875,-0.265625 -0.296875,-0.453125 0,-0.25 0.015625,-0.3125 0.046875,-0.484375 z m -2.0625,5.625 C 3.015625,-1 3.015625,-0.984375 2.875,-0.8125 2.4375,-0.265625 2.03125,-0.109375 1.75,-0.109375 c -0.5,0 -0.640625,-0.546875 -0.640625,-0.9375 0,-0.5 0.3125,-1.71875 0.546875,-2.1875 0.3125,-0.578125 0.75,-0.953125 1.15625,-0.953125 0.640625,0 0.78125,0.8125 0.78125,0.875 0,0.0625 -0.015625,0.125 -0.03125,0.171875 z m 0,0"
               id="path12" />
          </g>
        </g>
      </g>
    </g>
  </g>
</svg>
